<?xml version="1.0" encoding="utf-8"?>
<!-- Generator: Adobe Illustrator 19.0.0, SVG Export Plug-In . SVG Version: 6.00 Build 0)  -->
<svg version="1.1" id="Layer_1" xmlns="http://www.w3.org/2000/svg" xmlns:xlink="http://www.w3.org/1999/xlink" x="0px" y="0px"
	 viewBox="0 0 725.8 473.8" enable-background="new 0 0 725.8 473.8" xml:space="preserve">
<g id="XMLID_66_">
	<g id="XMLID_273_">
		<g id="XMLID_276_">
			<path id="XMLID_286_" d="M24.9,368.2h16c8.8,0,15,0.8,18.7,2.3c3.7,1.6,6.7,4.2,9,7.8c2.3,3.6,3.4,7.9,3.4,12.9
				c0,5.2-1.3,9.6-3.7,13.1s-6.3,6.2-11.3,8l18.8,35.3H59.2l-17.8-33.6H40v33.6H24.9V368.2z M40,399.2h4.7c4.8,0,8.1-0.6,9.9-1.9
				c1.8-1.3,2.7-3.4,2.7-6.3c0-1.7-0.4-3.2-1.3-4.5c-0.9-1.3-2.1-2.2-3.6-2.8c-1.5-0.6-4.3-0.8-8.3-0.8H40V399.2z"/>
			<path id="XMLID_283_" d="M180.7,366.2c11.2,0,20.9,4.1,29,12.2c8.1,8.1,12.1,18,12.1,29.7c0,11.6-4,21.4-12,29.4
				c-8,8-17.6,12-29,12c-11.9,0-21.8-4.1-29.7-12.4c-7.9-8.2-11.8-18-11.8-29.4c0-7.6,1.8-14.6,5.5-20.9c3.7-6.4,8.7-11.4,15.1-15.1
				C166.3,368,173.3,366.2,180.7,366.2z M180.5,380.9c-7.3,0-13.5,2.6-18.5,7.7c-5,5.1-7.5,11.6-7.5,19.5c0,8.8,3.2,15.7,9.5,20.8
				c4.9,4,10.5,6,16.9,6c7.2,0,13.3-2.6,18.3-7.8c5-5.2,7.6-11.6,7.6-19.2c0-7.6-2.5-13.9-7.6-19.2
				C194,383.6,187.8,380.9,180.5,380.9z"/>
			<path id="XMLID_281_" d="M285.6,368.2h16.2l14.8,28.5l14.7-28.5h16l-23.2,45v34.4h-15.2v-34.4L285.6,368.2z"/>
			<path id="XMLID_279_" d="M549.2,368.2h15.1v65h22v14.4h-37.1V368.2z"/>
			<path id="XMLID_277_" d="M655.9,368.2h43.3v14.8h-28.3v14.4h28.3v14.5h-28.3v20.9h28.3v14.8h-43.3V368.2z"/>
		</g>
		<polygon id="XMLID_275_" points="424.3,447.8 406.6,447.8 446.3,366 486.2,447.7 470.3,448 446.3,399.3 		"/>
		<polygon id="XMLID_274_" points="437.8,447.6 446.4,426.8 455,447.6 		"/>
	</g>
	<g id="XMLID_215_">
		<polygon id="XMLID_246_" points="385.7,161.5 361.2,194.5 337.4,161.5 361.2,128.5 		"/>
		<polygon id="XMLID_245_" points="391.7,72.9 361.1,114.1 331.4,72.9 361.1,31.6 		"/>
		<polygon id="XMLID_244_" points="375.1,231.9 361.4,250.5 348,231.9 361.4,213.4 		"/>
		<polygon id="XMLID_243_" points="332.1,162.6 317.2,200.9 285.5,175.3 299.8,137.2 		"/>
		<polygon id="XMLID_242_" points="343,233 334.7,254.6 316.9,240.2 324.8,218.8 		"/>
		<polygon id="XMLID_241_" points="280.6,177.8 276.4,218.7 239.2,202.4 242.8,161.9 		"/>
		<polygon id="XMLID_240_" points="310.3,242.4 307.9,265.3 287,256.2 289,233.4 		"/>
		<polygon id="XMLID_239_" points="235.1,206.1 241.8,246.6 201.6,240.8 194.4,200.8 		"/>
		<polygon id="XMLID_238_" points="146.4,186.8 140.1,148.8 177.8,154.3 184.6,191.8 		"/>
		<polygon id="XMLID_237_" points="282.6,261.2 286.4,284 263.8,280.7 259.7,258.2 		"/>
		<polygon id="XMLID_233_" points="390.5,162.6 405.4,200.9 437,175.3 422.8,137.2 		"/>
		<polygon id="XMLID_230_" points="382.1,233.3 390.4,254.8 408.2,240.5 400.2,219.1 		"/>
		<polygon id="XMLID_227_" points="441.9,177.8 446.1,218.7 483.4,202.4 479.8,161.9 		"/>
		<polygon id="XMLID_223_" points="412.2,243.8 414.6,266.8 435.6,257.6 433.5,234.8 		"/>
		<polygon id="XMLID_220_" points="487.5,206.1 480.8,246.6 521,240.8 528.2,200.8 		"/>
		<polygon id="XMLID_217_" points="579.4,183.5 585.7,145.6 548,151 541.3,188.5 		"/>
		<polygon id="XMLID_216_" points="439.9,261.2 436.1,284 458.8,280.7 462.8,258.2 		"/>
	</g>
</g>
</svg>
