<?xml version="1.0" encoding="utf-8"?>
<!-- Generator: Adobe Illustrator 19.0.0, SVG Export Plug-In . SVG Version: 6.00 Build 0)  -->
<svg version="1.1" id="Layer_1" xmlns="http://www.w3.org/2000/svg" xmlns:xlink="http://www.w3.org/1999/xlink" x="0px" y="0px"
	 viewBox="0 0 500.7 312.5" enable-background="new 0 0 500.7 312.5" xml:space="preserve">
<g id="XMLID_66_">
	<g id="XMLID_215_">
		<linearGradient id="XMLID_146_" gradientUnits="userSpaceOnUse" x1="170.9699" y1="55.8354" x2="347.6361" y2="285.9664">
			<stop  offset="0" style="stop-color:#E9C17F"/>
			<stop  offset="1" style="stop-color:#826D47"/>
		</linearGradient>
		<polygon id="XMLID_246_" fill="url(#XMLID_146_)" points="274,158.2 249.6,191.2 225.8,158.2 249.6,125.2 		"/>
		<linearGradient id="XMLID_147_" gradientUnits="userSpaceOnUse" x1="213.7304" y1="23.0091" x2="390.3966" y2="253.1401">
			<stop  offset="0" style="stop-color:#E9C17F"/>
			<stop  offset="1" style="stop-color:#826D47"/>
		</linearGradient>
		<polygon id="XMLID_245_" fill="url(#XMLID_147_)" points="280,69.6 249.5,110.8 219.8,69.6 249.5,28.3 		"/>
		<linearGradient id="XMLID_148_" gradientUnits="userSpaceOnUse" x1="137.0432" y1="81.8801" x2="313.7094" y2="312.0111">
			<stop  offset="0" style="stop-color:#E9C17F"/>
			<stop  offset="1" style="stop-color:#826D47"/>
		</linearGradient>
		<polygon id="XMLID_244_" fill="url(#XMLID_148_)" points="263.5,228.6 249.7,247.2 236.3,228.6 249.7,210.1 		"/>
		<linearGradient id="XMLID_149_" gradientUnits="userSpaceOnUse" x1="134.3835" y1="83.9219" x2="311.0497" y2="314.0529">
			<stop  offset="0" style="stop-color:#E9C17F"/>
			<stop  offset="1" style="stop-color:#826D47"/>
		</linearGradient>
		<polygon id="XMLID_243_" fill="url(#XMLID_149_)" points="220.4,159.3 205.5,197.6 173.9,172 188.1,133.9 		"/>
		<linearGradient id="XMLID_150_" gradientUnits="userSpaceOnUse" x1="114.9992" y1="98.8028" x2="291.6654" y2="328.9337">
			<stop  offset="0" style="stop-color:#E9C17F"/>
			<stop  offset="1" style="stop-color:#826D47"/>
		</linearGradient>
		<polygon id="XMLID_242_" fill="url(#XMLID_150_)" points="231.3,229.7 223,251.3 205.2,236.9 213.2,215.5 		"/>
		<linearGradient id="XMLID_151_" gradientUnits="userSpaceOnUse" x1="93.3984" y1="115.3852" x2="270.0646" y2="345.5162">
			<stop  offset="0" style="stop-color:#E9C17F"/>
			<stop  offset="1" style="stop-color:#826D47"/>
		</linearGradient>
		<polygon id="XMLID_241_" fill="url(#XMLID_151_)" points="169,174.5 164.8,215.3 127.5,199.1 131.1,158.6 		"/>
		<linearGradient id="XMLID_152_" gradientUnits="userSpaceOnUse" x1="89.1966" y1="118.6108" x2="265.8629" y2="348.7418">
			<stop  offset="0" style="stop-color:#E9C17F"/>
			<stop  offset="1" style="stop-color:#826D47"/>
		</linearGradient>
		<polygon id="XMLID_240_" fill="url(#XMLID_152_)" points="198.6,239.1 196.3,262 175.3,252.9 177.3,230.1 		"/>
		<linearGradient id="XMLID_153_" gradientUnits="userSpaceOnUse" x1="51.1431" y1="147.8236" x2="227.8093" y2="377.9547">
			<stop  offset="0" style="stop-color:#E9C17F"/>
			<stop  offset="1" style="stop-color:#826D47"/>
		</linearGradient>
		<polygon id="XMLID_239_" fill="url(#XMLID_153_)" points="123.4,202.8 130.1,243.3 89.9,237.5 82.7,197.4 		"/>
		<linearGradient id="XMLID_154_" gradientUnits="userSpaceOnUse" x1="41.3105" y1="155.3719" x2="217.9767" y2="385.5029">
			<stop  offset="0" style="stop-color:#E9C17F"/>
			<stop  offset="1" style="stop-color:#826D47"/>
		</linearGradient>
		<polygon id="XMLID_238_" fill="url(#XMLID_154_)" points="34.7,183.5 28.4,145.5 66.1,151 72.9,188.5 		"/>
		<linearGradient id="XMLID_155_" gradientUnits="userSpaceOnUse" x1="62.7329" y1="138.9264" x2="239.3992" y2="369.0574">
			<stop  offset="0" style="stop-color:#E9C17F"/>
			<stop  offset="1" style="stop-color:#826D47"/>
		</linearGradient>
		<polygon id="XMLID_237_" fill="url(#XMLID_155_)" points="171,257.9 174.8,280.7 152.1,277.4 148.1,254.9 		"/>
		<linearGradient id="XMLID_156_" gradientUnits="userSpaceOnUse" x1="200.5806" y1="33.1039" x2="377.2469" y2="263.2349">
			<stop  offset="0" style="stop-color:#E9C17F"/>
			<stop  offset="1" style="stop-color:#826D47"/>
		</linearGradient>
		<polygon id="XMLID_233_" fill="url(#XMLID_156_)" points="278.8,159.3 293.7,197.6 325.3,172 311.1,133.9 		"/>
		<linearGradient id="XMLID_157_" gradientUnits="userSpaceOnUse" x1="155.9858" y1="67.3383" x2="332.652" y2="297.4694">
			<stop  offset="0" style="stop-color:#E9C17F"/>
			<stop  offset="1" style="stop-color:#826D47"/>
		</linearGradient>
		<polygon id="XMLID_230_" fill="url(#XMLID_157_)" points="270.4,230 278.7,251.5 296.5,237.2 288.6,215.7 		"/>
		<linearGradient id="XMLID_158_" gradientUnits="userSpaceOnUse" x1="221.0784" y1="17.3682" x2="397.7446" y2="247.4993">
			<stop  offset="0" style="stop-color:#E9C17F"/>
			<stop  offset="1" style="stop-color:#826D47"/>
		</linearGradient>
		<polygon id="XMLID_227_" fill="url(#XMLID_158_)" points="330.3,174.5 334.5,215.3 371.7,199.1 368.1,158.6 		"/>
		<linearGradient id="XMLID_159_" gradientUnits="userSpaceOnUse" x1="167.3903" y1="58.5834" x2="344.0565" y2="288.7144">
			<stop  offset="0" style="stop-color:#E9C17F"/>
			<stop  offset="1" style="stop-color:#826D47"/>
		</linearGradient>
		<polygon id="XMLID_223_" fill="url(#XMLID_159_)" points="300.6,240.5 303,263.4 323.9,254.3 321.9,231.5 		"/>
		<linearGradient id="XMLID_160_" gradientUnits="userSpaceOnUse" x1="231.0765" y1="9.6929" x2="407.7427" y2="239.8239">
			<stop  offset="0" style="stop-color:#E9C17F"/>
			<stop  offset="1" style="stop-color:#826D47"/>
		</linearGradient>
		<polygon id="XMLID_220_" fill="url(#XMLID_160_)" points="375.8,202.8 369.1,243.3 409.3,237.5 416.5,197.4 		"/>
		<linearGradient id="XMLID_161_" gradientUnits="userSpaceOnUse" x1="295.5691" y1="-39.8166" x2="472.2353" y2="190.3145">
			<stop  offset="0" style="stop-color:#E9C17F"/>
			<stop  offset="1" style="stop-color:#826D47"/>
		</linearGradient>
		<polygon id="XMLID_217_" fill="url(#XMLID_161_)" points="467.8,180.2 474.1,142.3 436.4,147.7 429.6,185.2 		"/>
		<linearGradient id="XMLID_162_" gradientUnits="userSpaceOnUse" x1="173.5643" y1="53.8437" x2="350.2305" y2="283.9747">
			<stop  offset="0" style="stop-color:#E9C17F"/>
			<stop  offset="1" style="stop-color:#826D47"/>
		</linearGradient>
		<polygon id="XMLID_216_" fill="url(#XMLID_162_)" points="328.2,257.9 324.5,280.7 347.1,277.4 351.1,254.9 		"/>
	</g>
</g>
</svg>
