<?xml version="1.0" encoding="utf-8"?>
<!-- Generator: Adobe Illustrator 19.0.0, SVG Export Plug-In . SVG Version: 6.00 Build 0)  -->
<svg version="1.1" id="Layer_1" xmlns="http://www.w3.org/2000/svg" xmlns:xlink="http://www.w3.org/1999/xlink" x="0px" y="0px"
	 viewBox="0 0 725.8 473.8" enable-background="new 0 0 725.8 473.8" xml:space="preserve">
<g id="XMLID_66_">
	<g id="XMLID_273_">
		<g id="XMLID_276_">
			<linearGradient id="XMLID_120_" gradientUnits="userSpaceOnUse" x1="27.9985" y1="407.8424" x2="709.0972" y2="407.8424">
				<stop  offset="0" style="stop-color:#E9C17F"/>
				<stop  offset="1" style="stop-color:#826D47"/>
			</linearGradient>
			<path id="XMLID_286_" fill="url(#XMLID_120_)" d="M24.9,368.2h16c8.8,0,15,0.8,18.7,2.3c3.7,1.6,6.7,4.2,9,7.8
				c2.3,3.6,3.4,7.9,3.4,12.9c0,5.2-1.3,9.6-3.7,13.1s-6.3,6.2-11.3,8l18.8,35.3H59.2l-17.8-33.6H40v33.6H24.9V368.2z M40,399.2h4.7
				c4.8,0,8.1-0.6,9.9-1.9c1.8-1.3,2.7-3.4,2.7-6.3c0-1.7-0.4-3.2-1.3-4.5c-0.9-1.3-2.1-2.2-3.6-2.8c-1.5-0.6-4.3-0.8-8.3-0.8H40
				V399.2z"/>
			<linearGradient id="XMLID_121_" gradientUnits="userSpaceOnUse" x1="27.9985" y1="407.8424" x2="709.0972" y2="407.8424">
				<stop  offset="0" style="stop-color:#E9C17F"/>
				<stop  offset="1" style="stop-color:#826D47"/>
			</linearGradient>
			<path id="XMLID_283_" fill="url(#XMLID_121_)" d="M180.7,366.2c11.2,0,20.9,4.1,29,12.2c8.1,8.1,12.1,18,12.1,29.7
				c0,11.6-4,21.4-12,29.4c-8,8-17.6,12-29,12c-11.9,0-21.8-4.1-29.7-12.4c-7.9-8.2-11.8-18-11.8-29.4c0-7.6,1.8-14.6,5.5-20.9
				c3.7-6.4,8.7-11.4,15.1-15.1C166.3,368,173.3,366.2,180.7,366.2z M180.5,380.9c-7.3,0-13.5,2.6-18.5,7.7
				c-5,5.1-7.5,11.6-7.5,19.5c0,8.8,3.2,15.7,9.5,20.8c4.9,4,10.5,6,16.9,6c7.2,0,13.3-2.6,18.3-7.8c5-5.2,7.6-11.6,7.6-19.2
				c0-7.6-2.5-13.9-7.6-19.2C194,383.6,187.8,380.9,180.5,380.9z"/>
			<linearGradient id="XMLID_122_" gradientUnits="userSpaceOnUse" x1="27.9985" y1="407.8424" x2="709.0972" y2="407.8424">
				<stop  offset="0" style="stop-color:#E9C17F"/>
				<stop  offset="1" style="stop-color:#826D47"/>
			</linearGradient>
			<path id="XMLID_281_" fill="url(#XMLID_122_)" d="M285.6,368.2h16.2l14.8,28.5l14.7-28.5h16l-23.2,45v34.4h-15.2v-34.4
				L285.6,368.2z"/>
			<linearGradient id="XMLID_123_" gradientUnits="userSpaceOnUse" x1="27.9985" y1="407.8424" x2="709.0972" y2="407.8424">
				<stop  offset="0" style="stop-color:#E9C17F"/>
				<stop  offset="1" style="stop-color:#826D47"/>
			</linearGradient>
			<path id="XMLID_279_" fill="url(#XMLID_123_)" d="M549.2,368.2h15.1v65h22v14.4h-37.1V368.2z"/>
			<linearGradient id="XMLID_124_" gradientUnits="userSpaceOnUse" x1="27.9985" y1="407.8424" x2="709.0972" y2="407.8424">
				<stop  offset="0" style="stop-color:#E9C17F"/>
				<stop  offset="1" style="stop-color:#826D47"/>
			</linearGradient>
			<path id="XMLID_277_" fill="url(#XMLID_124_)" d="M655.9,368.2h43.3v14.8h-28.3v14.4h28.3v14.5h-28.3v20.9h28.3v14.8h-43.3V368.2
				z"/>
		</g>
		<linearGradient id="XMLID_125_" gradientUnits="userSpaceOnUse" x1="27.9985" y1="406.9821" x2="709.0972" y2="406.9821">
			<stop  offset="0" style="stop-color:#E9C17F"/>
			<stop  offset="1" style="stop-color:#826D47"/>
		</linearGradient>
		<polygon id="XMLID_275_" fill="url(#XMLID_125_)" points="424.3,447.8 406.6,447.8 446.3,366 486.2,447.7 470.3,448 446.3,399.3 
					"/>
		<linearGradient id="XMLID_126_" gradientUnits="userSpaceOnUse" x1="27.9985" y1="437.1746" x2="709.0972" y2="437.1746">
			<stop  offset="0" style="stop-color:#E9C17F"/>
			<stop  offset="1" style="stop-color:#826D47"/>
		</linearGradient>
		<polygon id="XMLID_274_" fill="url(#XMLID_126_)" points="437.8,447.6 446.4,426.8 455,447.6 		"/>
	</g>
	<g id="XMLID_215_">
		<linearGradient id="XMLID_127_" gradientUnits="userSpaceOnUse" x1="282.6369" y1="59.1422" x2="459.3031" y2="289.2732">
			<stop  offset="0" style="stop-color:#E9C17F"/>
			<stop  offset="1" style="stop-color:#826D47"/>
		</linearGradient>
		<polygon id="XMLID_246_" fill="url(#XMLID_127_)" points="385.7,161.5 361.2,194.5 337.4,161.5 361.2,128.5 		"/>
		<linearGradient id="XMLID_128_" gradientUnits="userSpaceOnUse" x1="325.3974" y1="26.3159" x2="502.0636" y2="256.4469">
			<stop  offset="0" style="stop-color:#E9C17F"/>
			<stop  offset="1" style="stop-color:#826D47"/>
		</linearGradient>
		<polygon id="XMLID_245_" fill="url(#XMLID_128_)" points="391.7,72.9 361.1,114.1 331.4,72.9 361.1,31.6 		"/>
		<linearGradient id="XMLID_129_" gradientUnits="userSpaceOnUse" x1="248.7102" y1="85.1869" x2="425.3764" y2="315.3179">
			<stop  offset="0" style="stop-color:#E9C17F"/>
			<stop  offset="1" style="stop-color:#826D47"/>
		</linearGradient>
		<polygon id="XMLID_244_" fill="url(#XMLID_129_)" points="375.1,231.9 361.4,250.5 348,231.9 361.4,213.4 		"/>
		<linearGradient id="XMLID_130_" gradientUnits="userSpaceOnUse" x1="246.0505" y1="87.2287" x2="422.7167" y2="317.3597">
			<stop  offset="0" style="stop-color:#E9C17F"/>
			<stop  offset="1" style="stop-color:#826D47"/>
		</linearGradient>
		<polygon id="XMLID_243_" fill="url(#XMLID_130_)" points="332.1,162.6 317.2,200.9 285.5,175.3 299.8,137.2 		"/>
		<linearGradient id="XMLID_131_" gradientUnits="userSpaceOnUse" x1="226.6662" y1="102.1095" x2="403.3324" y2="332.2405">
			<stop  offset="0" style="stop-color:#E9C17F"/>
			<stop  offset="1" style="stop-color:#826D47"/>
		</linearGradient>
		<polygon id="XMLID_242_" fill="url(#XMLID_131_)" points="343,233 334.7,254.6 316.9,240.2 324.8,218.8 		"/>
		<linearGradient id="XMLID_132_" gradientUnits="userSpaceOnUse" x1="205.0654" y1="118.692" x2="381.7316" y2="348.823">
			<stop  offset="0" style="stop-color:#E9C17F"/>
			<stop  offset="1" style="stop-color:#826D47"/>
		</linearGradient>
		<polygon id="XMLID_241_" fill="url(#XMLID_132_)" points="280.6,177.8 276.4,218.7 239.2,202.4 242.8,161.9 		"/>
		<linearGradient id="XMLID_133_" gradientUnits="userSpaceOnUse" x1="200.8636" y1="121.9176" x2="377.5298" y2="352.0486">
			<stop  offset="0" style="stop-color:#E9C17F"/>
			<stop  offset="1" style="stop-color:#826D47"/>
		</linearGradient>
		<polygon id="XMLID_240_" fill="url(#XMLID_133_)" points="310.3,242.4 307.9,265.3 287,256.2 289,233.4 		"/>
		<linearGradient id="XMLID_134_" gradientUnits="userSpaceOnUse" x1="162.8101" y1="151.1304" x2="339.4763" y2="381.2614">
			<stop  offset="0" style="stop-color:#E9C17F"/>
			<stop  offset="1" style="stop-color:#826D47"/>
		</linearGradient>
		<polygon id="XMLID_239_" fill="url(#XMLID_134_)" points="235.1,206.1 241.8,246.6 201.6,240.8 194.4,200.8 		"/>
		<linearGradient id="XMLID_135_" gradientUnits="userSpaceOnUse" x1="152.9774" y1="158.6787" x2="329.6437" y2="388.8097">
			<stop  offset="0" style="stop-color:#E9C17F"/>
			<stop  offset="1" style="stop-color:#826D47"/>
		</linearGradient>
		<polygon id="XMLID_238_" fill="url(#XMLID_135_)" points="146.4,186.8 140.1,148.8 177.8,154.3 184.6,191.8 		"/>
		<linearGradient id="XMLID_136_" gradientUnits="userSpaceOnUse" x1="174.3999" y1="142.2331" x2="351.0661" y2="372.3641">
			<stop  offset="0" style="stop-color:#E9C17F"/>
			<stop  offset="1" style="stop-color:#826D47"/>
		</linearGradient>
		<polygon id="XMLID_237_" fill="url(#XMLID_136_)" points="282.6,261.2 286.4,284 263.8,280.7 259.7,258.2 		"/>
		<linearGradient id="XMLID_137_" gradientUnits="userSpaceOnUse" x1="312.2476" y1="36.4107" x2="488.9138" y2="266.5417">
			<stop  offset="0" style="stop-color:#E9C17F"/>
			<stop  offset="1" style="stop-color:#826D47"/>
		</linearGradient>
		<polygon id="XMLID_233_" fill="url(#XMLID_137_)" points="390.5,162.6 405.4,200.9 437,175.3 422.8,137.2 		"/>
		<linearGradient id="XMLID_138_" gradientUnits="userSpaceOnUse" x1="267.6527" y1="70.6451" x2="444.319" y2="300.7761">
			<stop  offset="0" style="stop-color:#E9C17F"/>
			<stop  offset="1" style="stop-color:#826D47"/>
		</linearGradient>
		<polygon id="XMLID_230_" fill="url(#XMLID_138_)" points="382.1,233.3 390.4,254.8 408.2,240.5 400.2,219.1 		"/>
		<linearGradient id="XMLID_139_" gradientUnits="userSpaceOnUse" x1="332.7454" y1="20.675" x2="509.4116" y2="250.806">
			<stop  offset="0" style="stop-color:#E9C17F"/>
			<stop  offset="1" style="stop-color:#826D47"/>
		</linearGradient>
		<polygon id="XMLID_227_" fill="url(#XMLID_139_)" points="441.9,177.8 446.1,218.7 483.4,202.4 479.8,161.9 		"/>
		<linearGradient id="XMLID_140_" gradientUnits="userSpaceOnUse" x1="279.0573" y1="61.8901" x2="455.7235" y2="292.0211">
			<stop  offset="0" style="stop-color:#E9C17F"/>
			<stop  offset="1" style="stop-color:#826D47"/>
		</linearGradient>
		<polygon id="XMLID_223_" fill="url(#XMLID_140_)" points="412.2,243.8 414.6,266.8 435.6,257.6 433.5,234.8 		"/>
		<linearGradient id="XMLID_141_" gradientUnits="userSpaceOnUse" x1="342.7435" y1="12.9997" x2="519.4097" y2="243.1307">
			<stop  offset="0" style="stop-color:#E9C17F"/>
			<stop  offset="1" style="stop-color:#826D47"/>
		</linearGradient>
		<polygon id="XMLID_220_" fill="url(#XMLID_141_)" points="487.5,206.1 480.8,246.6 521,240.8 528.2,200.8 		"/>
		<linearGradient id="XMLID_142_" gradientUnits="userSpaceOnUse" x1="407.2361" y1="-36.5098" x2="583.9023" y2="193.6212">
			<stop  offset="0" style="stop-color:#E9C17F"/>
			<stop  offset="1" style="stop-color:#826D47"/>
		</linearGradient>
		<polygon id="XMLID_217_" fill="url(#XMLID_142_)" points="579.4,183.5 585.7,145.6 548,151 541.3,188.5 		"/>
		<linearGradient id="XMLID_143_" gradientUnits="userSpaceOnUse" x1="285.2313" y1="57.1505" x2="461.8975" y2="287.2815">
			<stop  offset="0" style="stop-color:#E9C17F"/>
			<stop  offset="1" style="stop-color:#826D47"/>
		</linearGradient>
		<polygon id="XMLID_216_" fill="url(#XMLID_143_)" points="439.9,261.2 436.1,284 458.8,280.7 462.8,258.2 		"/>
	</g>
</g>
</svg>
