<?xml version="1.0" encoding="utf-8"?>
<!-- Generator: Adobe Illustrator 19.0.0, SVG Export Plug-In . SVG Version: 6.00 Build 0)  -->
<svg version="1.1" id="Layer_1" xmlns="http://www.w3.org/2000/svg" xmlns:xlink="http://www.w3.org/1999/xlink" x="0px" y="0px"
	 viewBox="0 0 1302.1 329.3" enable-background="new 0 0 1302.1 329.3" xml:space="preserve">
<g id="XMLID_333_">
	<g id="XMLID_350_">
		<g id="XMLID_371_">
			<polygon id="XMLID_374_" fill="#FFFFFF" points="269.9,161.6 245.5,194.6 221.7,161.6 245.5,128.6 			"/>
			<polygon id="XMLID_373_" fill="#FFFFFF" points="275.9,73 245.4,114.2 215.7,73 245.4,31.7 			"/>
			<polygon id="XMLID_372_" fill="#FFFFFF" points="259.4,232 245.6,250.6 232.2,232 245.6,213.5 			"/>
		</g>
		<g id="XMLID_368_">
			<polygon id="XMLID_370_" fill="#FFFFFF" points="216.3,162.7 201.4,201 169.8,175.4 184,137.3 			"/>
			<polygon id="XMLID_369_" fill="#FFFFFF" points="227.2,233.1 218.9,254.7 201.1,240.3 209.1,218.9 			"/>
		</g>
		<g id="XMLID_365_">
			<polygon id="XMLID_367_" fill="#FFFFFF" points="164.9,177.9 160.7,218.7 123.4,202.5 127,162 			"/>
			<polygon id="XMLID_366_" fill="#FFFFFF" points="194.5,242.5 192.2,265.4 171.2,256.3 173.3,233.5 			"/>
		</g>
		<g id="XMLID_361_">
			<polygon id="XMLID_364_" fill="#FFFFFF" points="119.3,206.2 126,246.7 85.8,240.9 78.6,200.8 			"/>
			<polygon id="XMLID_363_" fill="#FFFFFF" points="30.6,186.9 24.3,148.9 62,154.4 68.8,191.9 			"/>
			<polygon id="XMLID_362_" fill="#FFFFFF" points="166.9,261.3 170.7,284.1 148,280.8 144,258.3 			"/>
		</g>
		<g id="XMLID_358_">
			<polygon id="XMLID_360_" fill="#FFFFFF" points="274.7,162.7 289.6,201 321.2,175.4 307,137.3 			"/>
			<polygon id="XMLID_359_" fill="#FFFFFF" points="266.3,233.4 274.6,254.9 292.4,240.6 284.5,219.1 			"/>
		</g>
		<g id="XMLID_355_">
			<polygon id="XMLID_357_" fill="#FFFFFF" points="326.2,177.9 330.4,218.7 367.6,202.5 364,162 			"/>
			<polygon id="XMLID_356_" fill="#FFFFFF" points="296.5,243.9 298.9,266.8 319.8,257.7 317.8,234.9 			"/>
		</g>
		<g id="XMLID_351_">
			<polygon id="XMLID_354_" fill="#FFFFFF" points="371.7,206.2 365,246.7 405.2,240.9 412.4,200.8 			"/>
			<polygon id="XMLID_353_" fill="#FFFFFF" points="463.7,183.6 470,145.7 432.3,151.1 425.5,188.6 			"/>
			<polygon id="XMLID_352_" fill="#FFFFFF" points="324.1,261.3 320.4,284.1 343,280.8 347,258.3 			"/>
		</g>
	</g>
	<g id="XMLID_334_">
		<g id="XMLID_337_">
			<path id="XMLID_347_" fill="#FFFFFF" d="M595.4,147.3h16c8.8,0,15,0.8,18.7,2.3c3.7,1.6,6.7,4.2,9,7.8c2.3,3.6,3.4,7.9,3.4,12.9
				c0,5.2-1.3,9.6-3.7,13.1c-2.5,3.5-6.3,6.2-11.3,8l18.8,35.3h-16.5L611.9,193h-1.4v33.6h-15.1V147.3z M610.6,178.3h4.7
				c4.8,0,8.1-0.6,9.9-1.9c1.8-1.3,2.7-3.4,2.7-6.3c0-1.7-0.4-3.2-1.3-4.5c-0.9-1.3-2.1-2.2-3.6-2.8c-1.5-0.6-4.3-0.8-8.3-0.8h-4.1
				V178.3z"/>
			<path id="XMLID_344_" fill="#FFFFFF" d="M751.2,145.3c11.2,0,20.9,4.1,29,12.2c8.1,8.1,12.1,18,12.1,29.7c0,11.6-4,21.4-12,29.4
				c-8,8-17.6,12-29,12c-11.9,0-21.8-4.1-29.7-12.4c-7.9-8.2-11.8-18-11.8-29.4c0-7.6,1.8-14.6,5.5-20.9c3.7-6.4,8.7-11.4,15.1-15.1
				S743.8,145.3,751.2,145.3z M751.1,160c-7.3,0-13.5,2.6-18.5,7.7c-5,5.1-7.5,11.6-7.5,19.5c0,8.8,3.2,15.7,9.5,20.8
				c4.9,4,10.5,6,16.9,6c7.2,0,13.3-2.6,18.3-7.8c5-5.2,7.6-11.6,7.6-19.2c0-7.6-2.5-13.9-7.6-19.2C764.5,162.7,758.3,160,751.1,160
				z"/>
			<path id="XMLID_342_" fill="#FFFFFF" d="M856.2,147.3h16.2l14.8,28.5l14.7-28.5h16l-23.2,45v34.4h-15.2v-34.4L856.2,147.3z"/>
			<path id="XMLID_340_" fill="#FFFFFF" d="M1122.6,147.3h15.1v65h22v14.4h-37.1V147.3z"/>
			<path id="XMLID_338_" fill="#FFFFFF" d="M1226.5,147.3h43.3V162h-28.3v14.4h28.3v14.5h-28.3v20.9h28.3v14.8h-43.3V147.3z"/>
		</g>
		<polygon id="XMLID_336_" fill="#FFFFFF" points="994.8,226.9 977.2,226.9 1016.9,145.1 1056.7,226.8 1040.9,227 1016.9,178.4 		
			"/>
		<polygon id="XMLID_335_" fill="#FFFFFF" points="1008.3,226.6 1016.9,205.9 1025.6,226.6 		"/>
	</g>
</g>
</svg>
