<?xml version="1.0" encoding="utf-8"?>
<!-- Generator: Adobe Illustrator 19.0.0, SVG Export Plug-In . SVG Version: 6.00 Build 0)  -->
<svg version="1.1" id="Layer_1" xmlns="http://www.w3.org/2000/svg" xmlns:xlink="http://www.w3.org/1999/xlink" x="0px" y="0px"
	 viewBox="0 0 500.7 312.5" enable-background="new 0 0 500.7 312.5" xml:space="preserve">
<g id="XMLID_66_">
	<g id="XMLID_215_">
		<polygon id="XMLID_246_" fill="#FFFFFF" points="274,158.2 249.6,191.2 225.8,158.2 249.6,125.2 		"/>
		<polygon id="XMLID_245_" fill="#FFFFFF" points="280,69.6 249.5,110.8 219.8,69.6 249.5,28.3 		"/>
		<polygon id="XMLID_244_" fill="#FFFFFF" points="263.5,228.6 249.7,247.2 236.3,228.6 249.7,210.1 		"/>
		<polygon id="XMLID_243_" fill="#FFFFFF" points="220.4,159.3 205.5,197.6 173.9,172 188.1,133.9 		"/>
		<polygon id="XMLID_242_" fill="#FFFFFF" points="231.3,229.7 223,251.3 205.2,236.9 213.2,215.5 		"/>
		<polygon id="XMLID_241_" fill="#FFFFFF" points="169,174.5 164.8,215.3 127.5,199.1 131.1,158.6 		"/>
		<polygon id="XMLID_240_" fill="#FFFFFF" points="198.6,239.1 196.3,262 175.3,252.9 177.3,230.1 		"/>
		<polygon id="XMLID_239_" fill="#FFFFFF" points="123.4,202.8 130.1,243.3 89.9,237.5 82.7,197.4 		"/>
		<polygon id="XMLID_238_" fill="#FFFFFF" points="34.7,183.5 28.4,145.5 66.1,151 72.9,188.5 		"/>
		<polygon id="XMLID_237_" fill="#FFFFFF" points="171,257.9 174.8,280.7 152.1,277.4 148.1,254.9 		"/>
		<polygon id="XMLID_233_" fill="#FFFFFF" points="278.8,159.3 293.7,197.6 325.3,172 311.1,133.9 		"/>
		<polygon id="XMLID_230_" fill="#FFFFFF" points="270.4,230 278.7,251.5 296.5,237.2 288.6,215.7 		"/>
		<polygon id="XMLID_227_" fill="#FFFFFF" points="330.3,174.5 334.5,215.3 371.7,199.1 368.1,158.6 		"/>
		<polygon id="XMLID_223_" fill="#FFFFFF" points="300.6,240.5 303,263.4 323.9,254.3 321.9,231.5 		"/>
		<polygon id="XMLID_220_" fill="#FFFFFF" points="375.8,202.8 369.1,243.3 409.3,237.5 416.5,197.4 		"/>
		<polygon id="XMLID_217_" fill="#FFFFFF" points="467.8,180.2 474.1,142.3 436.4,147.7 429.6,185.2 		"/>
		<polygon id="XMLID_216_" fill="#FFFFFF" points="328.2,257.9 324.5,280.7 347.1,277.4 351.1,254.9 		"/>
	</g>
</g>
</svg>
